<svg aria-hidden="true" style="position: absolute; width: 0; height: 0; overflow: hidden;" version="1.1"
    xmlns="http://www.w3.org/2000/svg" xmlns:xlink="http://www.w3.org/1999/xlink">
    <defs>
        <symbol id="icon-modal-cross" viewBox="0 0 32 32">
            <path stroke-linejoin="round" stroke-linecap="round" stroke-miterlimit="4" stroke-width="2.6667"
                d="M24 8l-16 16"></path>
            <path stroke-linejoin="round" stroke-linecap="round" stroke-miterlimit="4" stroke-width="2.6667"
                d="M8 8l16 16"></path>
        </symbol>
        <symbol id="icon-cross" viewBox="0 0 32 32">
            <path stroke-linejoin="round" stroke-linecap="round" stroke-miterlimit="4" stroke-width="3"
                d="M24 8l-16 16"></path>
            <path stroke-linejoin="round" stroke-linecap="round" stroke-miterlimit="4" stroke-width="3" d="M8 8l16 16">
            </path>
        </symbol>
        <symbol id="icon-search" viewBox="0 0 32 32">
            <path d="M15.2825 14.2178L12.5 11.4578C13.5801 10.1111 14.1031 8.40177 13.9616 6.68127C13.8201 4.96077 13.0247 3.35988 11.7391 2.20778C10.4535 1.05567 8.77535 0.439927 7.04968 0.487147C5.32402 0.534368 3.68203 1.24097 2.46135 2.46165C1.24066 3.68234 0.534063 5.32432 0.486842 7.04999C0.439622 8.77565 1.05537 10.4538 2.20747 11.7394C3.35958 13.025 4.96047 13.8204 6.68097 13.9619C8.40146 14.1034 10.1108 13.5804 11.4575 12.5003L14.2175 15.2603C14.2872 15.3306 14.3702 15.3864 14.4616 15.4245C14.553 15.4625 14.651 15.4821 14.75 15.4821C14.849 15.4821 14.947 15.4625 15.0384 15.4245C15.1298 15.3864 15.2128 15.3306 15.2825 15.2603C15.4177 15.1204 15.4932 14.9335 15.4932 14.739C15.4932 14.5445 15.4177 14.3576 15.2825 14.2178ZM7.24999 12.5003C6.21164 12.5003 5.1966 12.1924 4.33325 11.6155C3.46989 11.0386 2.79698 10.2187 2.39962 9.25938C2.00226 8.30007 1.89829 7.24447 2.10087 6.22607C2.30344 5.20767 2.80345 4.27221 3.53768 3.53798C4.27191 2.80376 5.20737 2.30374 6.22577 2.10117C7.24417 1.8986 8.29977 2.00257 9.25908 2.39993C10.2184 2.79729 11.0383 3.47019 11.6152 4.33355C12.1921 5.19691 12.5 6.21194 12.5 7.25029C12.5 8.64268 11.9469 9.97804 10.9623 10.9626C9.97774 11.9472 8.64238 12.5003 7.24999 12.5003Z" fill="#050505" fill-opacity="0.5"/>
        </symbol>
        <symbol id="icon-left" viewBox="0 0 32 32">
            <path
                d="M14.133 16.947c-0.125-0.124-0.224-0.271-0.292-0.434s-0.103-0.337-0.103-0.513c0-0.176 0.035-0.35 0.103-0.513s0.167-0.31 0.292-0.434l6.12-6.107c0.125-0.124 0.224-0.271 0.292-0.434s0.103-0.337 0.103-0.513-0.035-0.35-0.103-0.513c-0.068-0.162-0.167-0.31-0.292-0.434-0.25-0.248-0.588-0.388-0.94-0.388s-0.69 0.139-0.94 0.388l-6.12 6.12c-0.749 0.75-1.17 1.767-1.17 2.827s0.421 2.077 1.17 2.827l6.12 6.12c0.248 0.246 0.583 0.385 0.933 0.387 0.175 0.001 0.349-0.033 0.512-0.099s0.31-0.164 0.435-0.288c0.125-0.124 0.224-0.271 0.292-0.434s0.103-0.337 0.103-0.513c0-0.176-0.035-0.35-0.103-0.513s-0.167-0.31-0.292-0.434l-6.12-6.107z">
            </path>
        </symbol>
        <symbol id="icon-Star">
            <path
                d="M6.04894 0.927052C6.3483 0.0057416 7.6517 0.00574088 7.95106 0.927052L8.79611 3.52786C8.92999 3.93989 9.31394 4.21885 9.74717 4.21885H12.4818C13.4505 4.21885 13.8533 5.45846 13.0696 6.02786L10.8572 7.63525C10.5067 7.8899 10.3601 8.34127 10.494 8.75329L11.339 11.3541C11.6384 12.2754 10.5839 13.0415 9.80017 12.4721L7.58779 10.8647C7.2373 10.6101 6.7627 10.6101 6.41222 10.8647L4.19983 12.4721C3.41612 13.0415 2.36164 12.2754 2.66099 11.3541L3.50604 8.75329C3.63992 8.34127 3.49326 7.8899 3.14277 7.63525L0.930391 6.02787C0.146677 5.45846 0.549452 4.21885 1.51818 4.21885H4.25283C4.68606 4.21885 5.07001 3.93989 5.20389 3.52786L6.04894 0.927052Z"
                 />

        </symbol>
        <symbol id="icon-burger" viewBox="0 0 32 32">
            <path stroke-linejoin="round" stroke-linecap="round" stroke-miterlimit="4" stroke-width="2"
                d="M28 13.333h-24"></path>
            <path stroke-linejoin="round" stroke-linecap="round" stroke-miterlimit="4" stroke-width="2" d="M28 8h-24">
            </path>
            <path stroke-linejoin="round" stroke-linecap="round" stroke-miterlimit="4" stroke-width="2"
                d="M28 18.667h-24"></path>
            <path stroke-linejoin="round" stroke-linecap="round" stroke-miterlimit="4" stroke-width="2" d="M28 24h-24">
            </path>
        </symbol>
        <symbol id="icon-bag" viewBox="0 0 32 32">
            <path
                d="M9 22C9.55228 22 10 21.5523 10 21C10 20.4477 9.55228 20 9 20C8.44772 20 8 20.4477 8 21C8 21.5523 8.44772 22 9 22Z"
                fill="#050505" stroke="#050505" stroke-width="2" stroke-linecap="round" stroke-linejoin="round" />
            <path
                d="M20 22C20.5523 22 21 21.5523 21 21C21 20.4477 20.5523 20 20 20C19.4477 20 19 20.4477 19 21C19 21.5523 19.4477 22 20 22Z"
                fill="#050505" stroke="#050505" stroke-width="2" stroke-linecap="round" stroke-linejoin="round" />
            <path
                d="M1 1H5L7.68 14.39C7.77144 14.8504 8.02191 15.264 8.38755 15.5583C8.75318 15.8526 9.2107 16.009 9.68 16H19.4C19.8693 16.009 20.3268 15.8526 20.6925 15.5583C21.0581 15.264 21.3086 14.8504 21.4 14.39L23 6H6"
                stroke="#050505" stroke-width="1.8" stroke-linecap="round" stroke-linejoin="round" />
        </symbol>
        <symbol id="icon-email" viewBox="0 0 24 32">
            <path
                d="M20 8h-16c-1.1 0-1.99 0.9-1.99 2l-0.010 12c0 1.1 0.9 2 2 2h16c1.1 0 2-0.9 2-2v-12c0-1.1-0.9-2-2-2zM19.6 12.25l-7.070 4.42c-0.32 0.2-0.74 0.2-1.060 0l-7.070-4.42c-0.25-0.16-0.4-0.43-0.4-0.72 0-0.67 0.73-1.070 1.3-0.72l6.7 4.19 6.7-4.19c0.57-0.35 1.3 0.050 1.3 0.72 0 0.29-0.15 0.56-0.4 0.72z">
            </path>
        </symbol>
        <symbol id="icon-user" viewBox="0 0 32 32">
            <path
                d="M16 16c2.947 0 5.333-2.387 5.333-5.333s-2.387-5.333-5.333-5.333c-2.947 0-5.333 2.387-5.333 5.333s2.387 5.333 5.333 5.333zM16 18.667c-3.56 0-10.667 1.787-10.667 5.333v1.333c0 0.733 0.6 1.333 1.333 1.333h18.667c0.733 0 1.333-0.6 1.333-1.333v-1.333c0-3.547-7.107-5.333-10.667-5.333z">
            </path>
        </symbol>
        <symbol id="icon-phone" viewBox="0 0 24 32">
            <path
                d="M19.635 18.487l-2.451-0.28c-0.589-0.067-1.167 0.135-1.582 0.55l-1.775 1.775c-2.731-1.389-4.969-3.618-6.359-6.359l1.785-1.785c0.415-0.415 0.618-0.994 0.55-1.582l-0.28-2.432c-0.116-0.975-0.936-1.708-1.92-1.708h-1.669c-1.090 0-1.997 0.907-1.93 1.997 0.511 8.24 7.102 14.821 15.332 15.332 1.090 0.068 1.997-0.839 1.997-1.93v-1.669c0.010-0.975-0.724-1.795-1.698-1.911z">
            </path>
        </symbol>
        <symbol id="icon-chef-hat" viewBox="0 0 37 32">
            <path fill="#9bb537" style="fill: var(--color1, #9bb537)" d="M7.325 12.723h23.133v17.735h-23.133v-17.735z">
            </path>
            <path fill="#9bb537" style="fill: var(--color1, #9bb537)"
                d="M16.578 11.373c0 4.578-3.711 8.289-8.289 8.289s-8.289-3.711-8.289-8.289c0-4.578 3.711-8.289 8.289-8.289s8.289 3.711 8.289 8.289z">
            </path>
            <path fill="#9bb537" style="fill: var(--color1, #9bb537)"
                d="M26.988 8.289c0 4.578-3.711 8.289-8.289 8.289s-8.289-3.711-8.289-8.289c0-4.578 3.711-8.289 8.289-8.289s8.289 3.711 8.289 8.289z">
            </path>
            <path fill="#9bb537" style="fill: var(--color1, #9bb537)"
                d="M37.398 11.373c0 4.578-3.711 8.289-8.289 8.289s-8.289-3.711-8.289-8.289c0-4.578 3.711-8.289 8.289-8.289s8.289 3.711 8.289 8.289z">
            </path>
            <path fill="#f8f8f8" style="fill: var(--color2, #f8f8f8)"
                d="M7.325 29.301h23.133v2.036c0 0.366-0.324 0.663-0.723 0.663h-21.687c-0.399 0-0.723-0.297-0.723-0.663v-2.036z">
            </path>
            <path fill="#f8f8f8" style="fill: var(--color2, #f8f8f8)"
                d="M14.265 10.36c0-0.611 0.432-1.107 0.964-1.107s0.964 0.495 0.964 1.107v5.112c0 0.611-0.432 1.107-0.964 1.107s-0.964-0.495-0.964-1.107v-5.112z">
            </path>
            <path fill="#f8f8f8" style="fill: var(--color2, #f8f8f8)"
                d="M17.349 10.36c0-0.611 0.604-1.107 1.349-1.107s1.349 0.495 1.349 1.107v5.112c0 0.611-0.604 1.107-1.349 1.107s-1.349-0.495-1.349-1.107v-5.112z">
            </path>
            <path fill="#f8f8f8" style="fill: var(--color2, #f8f8f8)"
                d="M21.205 10.36c0-0.611 0.432-1.107 0.964-1.107s0.964 0.495 0.964 1.107v5.112c0 0.611-0.432 1.107-0.964 1.107s-0.964-0.495-0.964-1.107v-5.112z">
            </path>
            <path fill="#050505" style="fill: var(--color3, #050505)"
                d="M28.184 3.131c0.289-0.030 0.581-0.045 0.878-0.045 3.714 0 6.861 2.413 7.938 5.746-0.289 0.030-0.581 0.045-0.878 0.045-3.714 0-6.861-2.413-7.938-5.746z">
            </path>
        </symbol>
        <symbol id="icon-heart">
            <path 
                d="M10.9938 4.70783C9.16102 2.5652 6.10481 1.98884 3.80851 3.95085C1.51221 5.91285 1.18893 9.19323 2.99222 11.5137C4.49154 13.443 9.029 17.5121 10.5161 18.8291C10.6825 18.9764 10.7657 19.0501 10.8627 19.0791C10.9474 19.1043 11.0401 19.1043 11.1248 19.0791C11.2218 19.0501 11.305 18.9764 11.4714 18.8291C12.9585 17.5121 17.496 13.443 18.9953 11.5137C20.7986 9.19323 20.5148 5.89221 18.179 3.95085C15.8432 2.00948 12.8265 2.5652 10.9938 4.70783Z"
                />
        </symbol>

    </defs>
</svg>